<svg id="visual" viewBox="0 0 960 300" width="960" height="300" xmlns="http://www.w3.org/2000/svg" xmlns:xlink="http://www.w3.org/1999/xlink" version="1.1"><rect x="0" y="0" width="960" height="300" fill="#171717"></rect><path d="M0 77L11.5 76.7C23 76.3 46 75.7 68.8 75.5C91.7 75.3 114.3 75.7 137.2 76.5C160 77.3 183 78.7 205.8 78.8C228.7 79 251.3 78 274.2 76.5C297 75 320 73 342.8 73.7C365.7 74.3 388.3 77.7 411.2 79.2C434 80.7 457 80.3 480 79.8C503 79.3 526 78.7 548.8 78.8C571.7 79 594.3 80 617.2 79.2C640 78.3 663 75.7 685.8 74.3C708.7 73 731.3 73 754.2 73.5C777 74 800 75 822.8 75C845.7 75 868.3 74 891.2 74.3C914 74.7 937 76.3 948.5 77.2L960 78L960 0L948.5 0C937 0 914 0 891.2 0C868.3 0 845.7 0 822.8 0C800 0 777 0 754.2 0C731.3 0 708.7 0 685.8 0C663 0 640 0 617.2 0C594.3 0 571.7 0 548.8 0C526 0 503 0 480 0C457 0 434 0 411.2 0C388.3 0 365.7 0 342.8 0C320 0 297 0 274.2 0C251.3 0 228.7 0 205.8 0C183 0 160 0 137.2 0C114.3 0 91.7 0 68.8 0C46 0 23 0 11.5 0L0 0Z" fill="#1c1e1c"></path><path d="M0 69L11.5 67.2C23 65.3 46 61.7 68.8 60.7C91.7 59.7 114.3 61.3 137.2 62C160 62.7 183 62.3 205.8 63.3C228.7 64.3 251.3 66.7 274.2 66.3C297 66 320 63 342.8 62.2C365.7 61.3 388.3 62.7 411.2 62.2C434 61.7 457 59.3 480 59.7C503 60 526 63 548.8 63.2C571.7 63.3 594.3 60.7 617.2 59.5C640 58.3 663 58.7 685.8 60.3C708.7 62 731.3 65 754.2 66.3C777 67.7 800 67.3 822.8 65.7C845.7 64 868.3 61 891.2 60.5C914 60 937 62 948.5 63L960 64L960 0L948.5 0C937 0 914 0 891.2 0C868.3 0 845.7 0 822.8 0C800 0 777 0 754.2 0C731.3 0 708.7 0 685.8 0C663 0 640 0 617.2 0C594.3 0 571.7 0 548.8 0C526 0 503 0 480 0C457 0 434 0 411.2 0C388.3 0 365.7 0 342.8 0C320 0 297 0 274.2 0C251.3 0 228.7 0 205.8 0C183 0 160 0 137.2 0C114.3 0 91.7 0 68.8 0C46 0 23 0 11.5 0L0 0Z" fill="#254025"></path><path d="M0 55L11.5 53.7C23 52.3 46 49.7 68.8 47.8C91.7 46 114.3 45 137.2 44.8C160 44.7 183 45.3 205.8 45.8C228.7 46.3 251.3 46.7 274.2 47.5C297 48.3 320 49.7 342.8 51.3C365.7 53 388.3 55 411.2 54.5C434 54 457 51 480 51C503 51 526 54 548.8 55C571.7 56 594.3 55 617.2 53.7C640 52.3 663 50.7 685.8 50.8C708.7 51 731.3 53 754.2 54.3C777 55.7 800 56.3 822.8 55.3C845.7 54.3 868.3 51.7 891.2 49.7C914 47.7 937 46.3 948.5 45.7L960 45L960 0L948.5 0C937 0 914 0 891.2 0C868.3 0 845.7 0 822.8 0C800 0 777 0 754.2 0C731.3 0 708.7 0 685.8 0C663 0 640 0 617.2 0C594.3 0 571.7 0 548.8 0C526 0 503 0 480 0C457 0 434 0 411.2 0C388.3 0 365.7 0 342.8 0C320 0 297 0 274.2 0C251.3 0 228.7 0 205.8 0C183 0 160 0 137.2 0C114.3 0 91.7 0 68.8 0C46 0 23 0 11.5 0L0 0Z" fill="#2c652a"></path><path d="M0 34L11.5 35.5C23 37 46 40 68.8 39.7C91.7 39.3 114.3 35.7 137.2 33.8C160 32 183 32 205.8 33.7C228.7 35.3 251.3 38.7 274.2 39.8C297 41 320 40 342.8 38.5C365.7 37 388.3 35 411.2 34C434 33 457 33 480 34.2C503 35.3 526 37.7 548.8 37.5C571.7 37.3 594.3 34.7 617.2 34.7C640 34.7 663 37.3 685.8 38C708.7 38.7 731.3 37.3 754.2 37.8C777 38.3 800 40.7 822.8 40.8C845.7 41 868.3 39 891.2 37.7C914 36.3 937 35.7 948.5 35.3L960 35L960 0L948.5 0C937 0 914 0 891.2 0C868.3 0 845.7 0 822.8 0C800 0 777 0 754.2 0C731.3 0 708.7 0 685.8 0C663 0 640 0 617.2 0C594.3 0 571.7 0 548.8 0C526 0 503 0 480 0C457 0 434 0 411.2 0C388.3 0 365.7 0 342.8 0C320 0 297 0 274.2 0C251.3 0 228.7 0 205.8 0C183 0 160 0 137.2 0C114.3 0 91.7 0 68.8 0C46 0 23 0 11.5 0L0 0Z" fill="#338b2a"></path><path d="M0 23L11.5 24.2C23 25.3 46 27.7 68.8 28.3C91.7 29 114.3 28 137.2 27.8C160 27.7 183 28.3 205.8 27.5C228.7 26.7 251.3 24.3 274.2 23.5C297 22.7 320 23.3 342.8 22.8C365.7 22.3 388.3 20.7 411.2 21.8C434 23 457 27 480 28.5C503 30 526 29 548.8 28.5C571.7 28 594.3 28 617.2 27C640 26 663 24 685.8 22.7C708.7 21.3 731.3 20.7 754.2 21.8C777 23 800 26 822.8 27.7C845.7 29.3 868.3 29.7 891.2 29.3C914 29 937 28 948.5 27.5L960 27L960 0L948.5 0C937 0 914 0 891.2 0C868.3 0 845.7 0 822.8 0C800 0 777 0 754.2 0C731.3 0 708.7 0 685.8 0C663 0 640 0 617.2 0C594.3 0 571.7 0 548.8 0C526 0 503 0 480 0C457 0 434 0 411.2 0C388.3 0 365.7 0 342.8 0C320 0 297 0 274.2 0C251.3 0 228.7 0 205.8 0C183 0 160 0 137.2 0C114.3 0 91.7 0 68.8 0C46 0 23 0 11.5 0L0 0Z" fill="#3db323"></path><path d="M0 7L11.5 8.7C23 10.3 46 13.7 68.8 15C91.7 16.3 114.3 15.7 137.2 15.3C160 15 183 15 205.8 14.8C228.7 14.7 251.3 14.3 274.2 13C297 11.7 320 9.3 342.8 8.2C365.7 7 388.3 7 411.2 8.3C434 9.7 457 12.3 480 12.2C503 12 526 9 548.8 8.7C571.7 8.3 594.3 10.7 617.2 12.5C640 14.3 663 15.7 685.8 15C708.7 14.3 731.3 11.7 754.2 9.8C777 8 800 7 822.8 6.5C845.7 6 868.3 6 891.2 7.7C914 9.3 937 12.7 948.5 14.3L960 16L960 0L948.5 0C937 0 914 0 891.2 0C868.3 0 845.7 0 822.8 0C800 0 777 0 754.2 0C731.3 0 708.7 0 685.8 0C663 0 640 0 617.2 0C594.3 0 571.7 0 548.8 0C526 0 503 0 480 0C457 0 434 0 411.2 0C388.3 0 365.7 0 342.8 0C320 0 297 0 274.2 0C251.3 0 228.7 0 205.8 0C183 0 160 0 137.2 0C114.3 0 91.7 0 68.8 0C46 0 23 0 11.5 0L0 0Z" fill="#4ddc00"></path></svg>