<svg id="visual" viewBox="0 0 960 300" width="960" height="300" xmlns="http://www.w3.org/2000/svg" xmlns:xlink="http://www.w3.org/1999/xlink" version="1.1"><rect x="0" y="0" width="960" height="300" fill="#171717"></rect><path d="M0 142L11.5 142.7C23 143.3 46 144.7 68.8 145.3C91.7 146 114.3 146 137.2 144.3C160 142.7 183 139.3 205.8 138.8C228.7 138.3 251.3 140.7 274.2 143.7C297 146.7 320 150.3 342.8 149C365.7 147.7 388.3 141.3 411.2 138.5C434 135.7 457 136.3 480 137.2C503 138 526 139 548.8 138.8C571.7 138.7 594.3 137.3 617.2 139.3C640 141.3 663 146.7 685.8 149C708.7 151.3 731.3 150.7 754.2 149.7C777 148.7 800 147.3 822.8 147.7C845.7 148 868.3 150 891.2 149.2C914 148.3 937 144.7 948.5 142.8L960 141L960 301L948.5 301C937 301 914 301 891.2 301C868.3 301 845.7 301 822.8 301C800 301 777 301 754.2 301C731.3 301 708.7 301 685.8 301C663 301 640 301 617.2 301C594.3 301 571.7 301 548.8 301C526 301 503 301 480 301C457 301 434 301 411.2 301C388.3 301 365.7 301 342.8 301C320 301 297 301 274.2 301C251.3 301 228.7 301 205.8 301C183 301 160 301 137.2 301C114.3 301 91.7 301 68.8 301C46 301 23 301 11.5 301L0 301Z" fill="#1c1e1c"></path><path d="M0 158L11.5 161.8C23 165.7 46 173.3 68.8 175.5C91.7 177.7 114.3 174.3 137.2 172.8C160 171.3 183 171.7 205.8 169.5C228.7 167.3 251.3 162.7 274.2 163.5C297 164.3 320 170.7 342.8 172.5C365.7 174.3 388.3 171.7 411.2 172.5C434 173.3 457 177.7 480 177C503 176.3 526 170.7 548.8 170.7C571.7 170.7 594.3 176.3 617.2 178.7C640 181 663 180 685.8 176.3C708.7 172.7 731.3 166.3 754.2 163.5C777 160.7 800 161.3 822.8 165C845.7 168.7 868.3 175.3 891.2 176.5C914 177.7 937 173.3 948.5 171.2L960 169L960 301L948.5 301C937 301 914 301 891.2 301C868.3 301 845.7 301 822.8 301C800 301 777 301 754.2 301C731.3 301 708.7 301 685.8 301C663 301 640 301 617.2 301C594.3 301 571.7 301 548.8 301C526 301 503 301 480 301C457 301 434 301 411.2 301C388.3 301 365.7 301 342.8 301C320 301 297 301 274.2 301C251.3 301 228.7 301 205.8 301C183 301 160 301 137.2 301C114.3 301 91.7 301 68.8 301C46 301 23 301 11.5 301L0 301Z" fill="#254025"></path><path d="M0 187L11.5 189.8C23 192.7 46 198.3 68.8 201.8C91.7 205.3 114.3 206.7 137.2 207C160 207.3 183 206.7 205.8 205.8C228.7 205 251.3 204 274.2 202.2C297 200.3 320 197.7 342.8 194.3C365.7 191 388.3 187 411.2 188C434 189 457 195 480 195C503 195 526 189 548.8 186.8C571.7 184.7 594.3 186.3 617.2 188.8C640 191.3 663 194.7 685.8 194.3C708.7 194 731.3 190 754.2 187.7C777 185.3 800 184.7 822.8 186.8C845.7 189 868.3 194 891.2 198C914 202 937 205 948.5 206.5L960 208L960 301L948.5 301C937 301 914 301 891.2 301C868.3 301 845.7 301 822.8 301C800 301 777 301 754.2 301C731.3 301 708.7 301 685.8 301C663 301 640 301 617.2 301C594.3 301 571.7 301 548.8 301C526 301 503 301 480 301C457 301 434 301 411.2 301C388.3 301 365.7 301 342.8 301C320 301 297 301 274.2 301C251.3 301 228.7 301 205.8 301C183 301 160 301 137.2 301C114.3 301 91.7 301 68.8 301C46 301 23 301 11.5 301L0 301Z" fill="#2c652a"></path><path d="M0 228L11.5 225.3C23 222.7 46 217.3 68.8 218C91.7 218.7 114.3 225.3 137.2 228.8C160 232.3 183 232.7 205.8 229.3C228.7 226 251.3 219 274.2 216.7C297 214.3 320 216.7 342.8 219.8C365.7 223 388.3 227 411.2 228.8C434 230.7 457 230.3 480 228.2C503 226 526 222 548.8 222.5C571.7 223 594.3 228 617.2 227.8C640 227.7 663 222.3 685.8 221C708.7 219.7 731.3 222.3 754.2 221.3C777 220.3 800 215.7 822.8 215.3C845.7 215 868.3 219 891.2 221.5C914 224 937 225 948.5 225.5L960 226L960 301L948.5 301C937 301 914 301 891.2 301C868.3 301 845.7 301 822.8 301C800 301 777 301 754.2 301C731.3 301 708.7 301 685.8 301C663 301 640 301 617.2 301C594.3 301 571.7 301 548.8 301C526 301 503 301 480 301C457 301 434 301 411.2 301C388.3 301 365.7 301 342.8 301C320 301 297 301 274.2 301C251.3 301 228.7 301 205.8 301C183 301 160 301 137.2 301C114.3 301 91.7 301 68.8 301C46 301 23 301 11.5 301L0 301Z" fill="#338b2a"></path><path d="M0 251L11.5 248.8C23 246.7 46 242.3 68.8 241.2C91.7 240 114.3 242 137.2 242C160 242 183 240 205.8 241.7C228.7 243.3 251.3 248.7 274.2 250.5C297 252.3 320 250.7 342.8 251.3C365.7 252 388.3 255 411.2 252.8C434 250.7 457 243.3 480 240.3C503 237.3 526 238.7 548.8 239.3C571.7 240 594.3 240 617.2 242C640 244 663 248 685.8 250.8C708.7 253.7 731.3 255.3 754.2 253.2C777 251 800 245 822.8 241.5C845.7 238 868.3 237 891.2 237.7C914 238.3 937 240.7 948.5 241.8L960 243L960 301L948.5 301C937 301 914 301 891.2 301C868.3 301 845.7 301 822.8 301C800 301 777 301 754.2 301C731.3 301 708.7 301 685.8 301C663 301 640 301 617.2 301C594.3 301 571.7 301 548.8 301C526 301 503 301 480 301C457 301 434 301 411.2 301C388.3 301 365.7 301 342.8 301C320 301 297 301 274.2 301C251.3 301 228.7 301 205.8 301C183 301 160 301 137.2 301C114.3 301 91.7 301 68.8 301C46 301 23 301 11.5 301L0 301Z" fill="#3db323"></path><path d="M0 283L11.5 279.5C23 276 46 269 68.8 266.3C91.7 263.7 114.3 265.3 137.2 266.2C160 267 183 267 205.8 267.2C228.7 267.3 251.3 267.7 274.2 270.2C297 272.7 320 277.3 342.8 280C365.7 282.7 388.3 283.3 411.2 280.8C434 278.3 457 272.7 480 272.8C503 273 526 279 548.8 279.7C571.7 280.3 594.3 275.7 617.2 272C640 268.3 663 265.7 685.8 267.2C708.7 268.7 731.3 274.3 754.2 278.2C777 282 800 284 822.8 284.8C845.7 285.7 868.3 285.3 891.2 281.8C914 278.3 937 271.7 948.5 268.3L960 265L960 301L948.5 301C937 301 914 301 891.2 301C868.3 301 845.7 301 822.8 301C800 301 777 301 754.2 301C731.3 301 708.7 301 685.8 301C663 301 640 301 617.2 301C594.3 301 571.7 301 548.8 301C526 301 503 301 480 301C457 301 434 301 411.2 301C388.3 301 365.7 301 342.8 301C320 301 297 301 274.2 301C251.3 301 228.7 301 205.8 301C183 301 160 301 137.2 301C114.3 301 91.7 301 68.8 301C46 301 23 301 11.5 301L0 301Z" fill="#4ddc00"></path></svg>