<svg id="visual" viewBox="0 0 960 150" width="960" height="150" xmlns="http://www.w3.org/2000/svg" xmlns:xlink="http://www.w3.org/1999/xlink" version="1.1"><rect x="0" y="0" width="960" height="150" fill="#171717"></rect><path d="M0 97L11.5 97.5C23 98 46 99 68.8 100.7C91.7 102.3 114.3 104.7 137.2 104.5C160 104.3 183 101.7 205.8 101.5C228.7 101.3 251.3 103.7 274.2 105.3C297 107 320 108 342.8 108.2C365.7 108.3 388.3 107.7 411.2 107.3C434 107 457 107 480 106.2C503 105.3 526 103.7 548.8 104.2C571.7 104.7 594.3 107.3 617.2 107.8C640 108.3 663 106.7 685.8 105.5C708.7 104.3 731.3 103.7 754.2 103.3C777 103 800 103 822.8 102.8C845.7 102.7 868.3 102.3 891.2 103.2C914 104 937 106 948.5 107L960 108L960 0L948.5 0C937 0 914 0 891.2 0C868.3 0 845.7 0 822.8 0C800 0 777 0 754.2 0C731.3 0 708.7 0 685.8 0C663 0 640 0 617.2 0C594.3 0 571.7 0 548.8 0C526 0 503 0 480 0C457 0 434 0 411.2 0C388.3 0 365.7 0 342.8 0C320 0 297 0 274.2 0C251.3 0 228.7 0 205.8 0C183 0 160 0 137.2 0C114.3 0 91.7 0 68.8 0C46 0 23 0 11.5 0L0 0Z" fill="#212121"></path><path d="M0 91L11.5 89.7C23 88.3 46 85.7 68.8 85.5C91.7 85.3 114.3 87.7 137.2 87.7C160 87.7 183 85.3 205.8 83.8C228.7 82.3 251.3 81.7 274.2 82.8C297 84 320 87 342.8 86.5C365.7 86 388.3 82 411.2 80C434 78 457 78 480 79.8C503 81.7 526 85.3 548.8 87.8C571.7 90.3 594.3 91.7 617.2 90C640 88.3 663 83.7 685.8 81.3C708.7 79 731.3 79 754.2 81.3C777 83.7 800 88.3 822.8 88.8C845.7 89.3 868.3 85.7 891.2 84.7C914 83.7 937 85.3 948.5 86.2L960 87L960 0L948.5 0C937 0 914 0 891.2 0C868.3 0 845.7 0 822.8 0C800 0 777 0 754.2 0C731.3 0 708.7 0 685.8 0C663 0 640 0 617.2 0C594.3 0 571.7 0 548.8 0C526 0 503 0 480 0C457 0 434 0 411.2 0C388.3 0 365.7 0 342.8 0C320 0 297 0 274.2 0C251.3 0 228.7 0 205.8 0C183 0 160 0 137.2 0C114.3 0 91.7 0 68.8 0C46 0 23 0 11.5 0L0 0Z" fill="#2d2d2d"></path><path d="M0 70L11.5 70.3C23 70.7 46 71.3 68.8 71.2C91.7 71 114.3 70 137.2 68.2C160 66.3 183 63.7 205.8 64.7C228.7 65.7 251.3 70.3 274.2 72.8C297 75.3 320 75.7 342.8 73.3C365.7 71 388.3 66 411.2 65.3C434 64.7 457 68.3 480 69C503 69.7 526 67.3 548.8 65.8C571.7 64.3 594.3 63.7 617.2 65C640 66.3 663 69.7 685.8 69.8C708.7 70 731.3 67 754.2 65.7C777 64.3 800 64.7 822.8 66C845.7 67.3 868.3 69.7 891.2 70C914 70.3 937 68.7 948.5 67.8L960 67L960 0L948.5 0C937 0 914 0 891.2 0C868.3 0 845.7 0 822.8 0C800 0 777 0 754.2 0C731.3 0 708.7 0 685.8 0C663 0 640 0 617.2 0C594.3 0 571.7 0 548.8 0C526 0 503 0 480 0C457 0 434 0 411.2 0C388.3 0 365.7 0 342.8 0C320 0 297 0 274.2 0C251.3 0 228.7 0 205.8 0C183 0 160 0 137.2 0C114.3 0 91.7 0 68.8 0C46 0 23 0 11.5 0L0 0Z" fill="#3a3a3a"></path><path d="M0 56L11.5 54.8C23 53.7 46 51.3 68.8 49.5C91.7 47.7 114.3 46.3 137.2 46.5C160 46.7 183 48.3 205.8 49C228.7 49.7 251.3 49.3 274.2 50.8C297 52.3 320 55.7 342.8 56.7C365.7 57.7 388.3 56.3 411.2 54.7C434 53 457 51 480 51.5C503 52 526 55 548.8 54.8C571.7 54.7 594.3 51.3 617.2 51C640 50.7 663 53.3 685.8 53.5C708.7 53.7 731.3 51.3 754.2 50.2C777 49 800 49 822.8 48.2C845.7 47.3 868.3 45.7 891.2 45.2C914 44.7 937 45.3 948.5 45.7L960 46L960 0L948.5 0C937 0 914 0 891.2 0C868.3 0 845.7 0 822.8 0C800 0 777 0 754.2 0C731.3 0 708.7 0 685.8 0C663 0 640 0 617.2 0C594.3 0 571.7 0 548.8 0C526 0 503 0 480 0C457 0 434 0 411.2 0C388.3 0 365.7 0 342.8 0C320 0 297 0 274.2 0C251.3 0 228.7 0 205.8 0C183 0 160 0 137.2 0C114.3 0 91.7 0 68.8 0C46 0 23 0 11.5 0L0 0Z" fill="#484848"></path><path d="M0 39L11.5 37.3C23 35.7 46 32.3 68.8 32.2C91.7 32 114.3 35 137.2 36.8C160 38.7 183 39.3 205.8 39.5C228.7 39.7 251.3 39.3 274.2 38.5C297 37.7 320 36.3 342.8 34.7C365.7 33 388.3 31 411.2 31.3C434 31.7 457 34.3 480 36C503 37.7 526 38.3 548.8 36.5C571.7 34.7 594.3 30.3 617.2 29.3C640 28.3 663 30.7 685.8 31C708.7 31.3 731.3 29.7 754.2 30.3C777 31 800 34 822.8 35.7C845.7 37.3 868.3 37.7 891.2 38C914 38.3 937 38.7 948.5 38.8L960 39L960 0L948.5 0C937 0 914 0 891.2 0C868.3 0 845.7 0 822.8 0C800 0 777 0 754.2 0C731.3 0 708.7 0 685.8 0C663 0 640 0 617.2 0C594.3 0 571.7 0 548.8 0C526 0 503 0 480 0C457 0 434 0 411.2 0C388.3 0 365.7 0 342.8 0C320 0 297 0 274.2 0C251.3 0 228.7 0 205.8 0C183 0 160 0 137.2 0C114.3 0 91.7 0 68.8 0C46 0 23 0 11.5 0L0 0Z" fill="#565656"></path><path d="M0 14L11.5 13C23 12 46 10 68.8 10C91.7 10 114.3 12 137.2 12.7C160 13.3 183 12.7 205.8 12.7C228.7 12.7 251.3 13.3 274.2 14.2C297 15 320 16 342.8 15.7C365.7 15.3 388.3 13.7 411.2 13.2C434 12.7 457 13.3 480 13C503 12.7 526 11.3 548.8 12.7C571.7 14 594.3 18 617.2 19.8C640 21.7 663 21.3 685.8 19.3C708.7 17.3 731.3 13.7 754.2 13.5C777 13.3 800 16.7 822.8 16.5C845.7 16.3 868.3 12.7 891.2 13.3C914 14 937 19 948.5 21.5L960 24L960 0L948.5 0C937 0 914 0 891.2 0C868.3 0 845.7 0 822.8 0C800 0 777 0 754.2 0C731.3 0 708.7 0 685.8 0C663 0 640 0 617.2 0C594.3 0 571.7 0 548.8 0C526 0 503 0 480 0C457 0 434 0 411.2 0C388.3 0 365.7 0 342.8 0C320 0 297 0 274.2 0C251.3 0 228.7 0 205.8 0C183 0 160 0 137.2 0C114.3 0 91.7 0 68.8 0C46 0 23 0 11.5 0L0 0Z" fill="#646464"></path></svg>