<svg id="visual" viewBox="0 0 960 150" width="960" height="150" xmlns="http://www.w3.org/2000/svg" xmlns:xlink="http://www.w3.org/1999/xlink" version="1.1"><rect x="0" y="0" width="960" height="150" fill="#171717"></rect><path d="M0 51L11.5 50.5C23 50 46 49 68.8 47.3C91.7 45.7 114.3 43.3 137.2 43.5C160 43.7 183 46.3 205.8 46.5C228.7 46.7 251.3 44.3 274.2 42.7C297 41 320 40 342.8 39.8C365.7 39.7 388.3 40.3 411.2 40.7C434 41 457 41 480 41.8C503 42.7 526 44.3 548.8 43.8C571.7 43.3 594.3 40.7 617.2 40.2C640 39.7 663 41.3 685.8 42.5C708.7 43.7 731.3 44.3 754.2 44.7C777 45 800 45 822.8 45.2C845.7 45.3 868.3 45.7 891.2 44.8C914 44 937 42 948.5 41L960 40L960 151L948.5 151C937 151 914 151 891.2 151C868.3 151 845.7 151 822.8 151C800 151 777 151 754.2 151C731.3 151 708.7 151 685.8 151C663 151 640 151 617.2 151C594.3 151 571.7 151 548.8 151C526 151 503 151 480 151C457 151 434 151 411.2 151C388.3 151 365.7 151 342.8 151C320 151 297 151 274.2 151C251.3 151 228.7 151 205.8 151C183 151 160 151 137.2 151C114.3 151 91.7 151 68.8 151C46 151 23 151 11.5 151L0 151Z" fill="#212121"></path><path d="M0 57L11.5 58.3C23 59.7 46 62.3 68.8 62.5C91.7 62.7 114.3 60.3 137.2 60.3C160 60.3 183 62.7 205.8 64.2C228.7 65.7 251.3 66.3 274.2 65.2C297 64 320 61 342.8 61.5C365.7 62 388.3 66 411.2 68C434 70 457 70 480 68.2C503 66.3 526 62.7 548.8 60.2C571.7 57.7 594.3 56.3 617.2 58C640 59.7 663 64.3 685.8 66.7C708.7 69 731.3 69 754.2 66.7C777 64.3 800 59.7 822.8 59.2C845.7 58.7 868.3 62.3 891.2 63.3C914 64.3 937 62.7 948.5 61.8L960 61L960 151L948.5 151C937 151 914 151 891.2 151C868.3 151 845.7 151 822.8 151C800 151 777 151 754.2 151C731.3 151 708.7 151 685.8 151C663 151 640 151 617.2 151C594.3 151 571.7 151 548.8 151C526 151 503 151 480 151C457 151 434 151 411.2 151C388.3 151 365.7 151 342.8 151C320 151 297 151 274.2 151C251.3 151 228.7 151 205.8 151C183 151 160 151 137.2 151C114.3 151 91.7 151 68.8 151C46 151 23 151 11.5 151L0 151Z" fill="#2d2d2d"></path><path d="M0 78L11.5 77.7C23 77.3 46 76.7 68.8 76.8C91.7 77 114.3 78 137.2 79.8C160 81.7 183 84.3 205.8 83.3C228.7 82.3 251.3 77.7 274.2 75.2C297 72.7 320 72.3 342.8 74.7C365.7 77 388.3 82 411.2 82.7C434 83.3 457 79.7 480 79C503 78.3 526 80.7 548.8 82.2C571.7 83.7 594.3 84.3 617.2 83C640 81.7 663 78.3 685.8 78.2C708.7 78 731.3 81 754.2 82.3C777 83.7 800 83.3 822.8 82C845.7 80.7 868.3 78.3 891.2 78C914 77.7 937 79.3 948.5 80.2L960 81L960 151L948.5 151C937 151 914 151 891.2 151C868.3 151 845.7 151 822.8 151C800 151 777 151 754.2 151C731.3 151 708.7 151 685.8 151C663 151 640 151 617.2 151C594.3 151 571.7 151 548.8 151C526 151 503 151 480 151C457 151 434 151 411.2 151C388.3 151 365.7 151 342.8 151C320 151 297 151 274.2 151C251.3 151 228.7 151 205.8 151C183 151 160 151 137.2 151C114.3 151 91.7 151 68.8 151C46 151 23 151 11.5 151L0 151Z" fill="#3a3a3a"></path><path d="M0 92L11.5 93.2C23 94.3 46 96.7 68.8 98.5C91.7 100.3 114.3 101.7 137.2 101.5C160 101.3 183 99.7 205.8 99C228.7 98.3 251.3 98.7 274.2 97.2C297 95.7 320 92.3 342.8 91.3C365.7 90.3 388.3 91.7 411.2 93.3C434 95 457 97 480 96.5C503 96 526 93 548.8 93.2C571.7 93.3 594.3 96.7 617.2 97C640 97.3 663 94.7 685.8 94.5C708.7 94.3 731.3 96.7 754.2 97.8C777 99 800 99 822.8 99.8C845.7 100.7 868.3 102.3 891.2 102.8C914 103.3 937 102.7 948.5 102.3L960 102L960 151L948.5 151C937 151 914 151 891.2 151C868.3 151 845.7 151 822.8 151C800 151 777 151 754.2 151C731.3 151 708.7 151 685.8 151C663 151 640 151 617.2 151C594.3 151 571.7 151 548.8 151C526 151 503 151 480 151C457 151 434 151 411.2 151C388.3 151 365.7 151 342.8 151C320 151 297 151 274.2 151C251.3 151 228.7 151 205.8 151C183 151 160 151 137.2 151C114.3 151 91.7 151 68.8 151C46 151 23 151 11.5 151L0 151Z" fill="#484848"></path><path d="M0 109L11.5 110.7C23 112.3 46 115.7 68.8 115.8C91.7 116 114.3 113 137.2 111.2C160 109.3 183 108.7 205.8 108.5C228.7 108.3 251.3 108.7 274.2 109.5C297 110.3 320 111.7 342.8 113.3C365.7 115 388.3 117 411.2 116.7C434 116.3 457 113.7 480 112C503 110.3 526 109.7 548.8 111.5C571.7 113.3 594.3 117.7 617.2 118.7C640 119.7 663 117.3 685.8 117C708.7 116.7 731.3 118.3 754.2 117.7C777 117 800 114 822.8 112.3C845.7 110.7 868.3 110.3 891.2 110C914 109.7 937 109.3 948.5 109.2L960 109L960 151L948.5 151C937 151 914 151 891.2 151C868.3 151 845.7 151 822.8 151C800 151 777 151 754.2 151C731.3 151 708.7 151 685.8 151C663 151 640 151 617.2 151C594.3 151 571.7 151 548.8 151C526 151 503 151 480 151C457 151 434 151 411.2 151C388.3 151 365.7 151 342.8 151C320 151 297 151 274.2 151C251.3 151 228.7 151 205.8 151C183 151 160 151 137.2 151C114.3 151 91.7 151 68.8 151C46 151 23 151 11.5 151L0 151Z" fill="#565656"></path><path d="M0 134L11.5 135C23 136 46 138 68.8 138C91.7 138 114.3 136 137.2 135.3C160 134.7 183 135.3 205.8 135.3C228.7 135.3 251.3 134.7 274.2 133.8C297 133 320 132 342.8 132.3C365.7 132.7 388.3 134.3 411.2 134.8C434 135.3 457 134.7 480 135C503 135.3 526 136.7 548.8 135.3C571.7 134 594.3 130 617.2 128.2C640 126.3 663 126.7 685.8 128.7C708.7 130.7 731.3 134.3 754.2 134.5C777 134.7 800 131.3 822.8 131.5C845.7 131.7 868.3 135.3 891.2 134.7C914 134 937 129 948.5 126.5L960 124L960 151L948.5 151C937 151 914 151 891.2 151C868.3 151 845.7 151 822.8 151C800 151 777 151 754.2 151C731.3 151 708.7 151 685.8 151C663 151 640 151 617.2 151C594.3 151 571.7 151 548.8 151C526 151 503 151 480 151C457 151 434 151 411.2 151C388.3 151 365.7 151 342.8 151C320 151 297 151 274.2 151C251.3 151 228.7 151 205.8 151C183 151 160 151 137.2 151C114.3 151 91.7 151 68.8 151C46 151 23 151 11.5 151L0 151Z" fill="#646464"></path></svg>